<?xml version="1.0" encoding="UTF-8"?>
<svg width="471px" height="105px" viewBox="0 0 471 105" version="1.1" xmlns="http://www.w3.org/2000/svg" xmlns:xlink="http://www.w3.org/1999/xlink">
    <!-- Generator: Sketch 48.2 (47327) - http://www.bohemiancoding.com/sketch -->
    <title>krombacher-logo</title>
    <desc>Created with Sketch.</desc>
    <defs></defs>
    <g id="Page-1" stroke="none" stroke-width="1" fill="none" fill-rule="evenodd">
        <g id="krombacher-logo" transform="translate(-0.095949, -0.347139)" fill="#000000" fill-rule="nonzero">
            <path d="M237.297,44.783 C240.899,44.783 243.722,52.652 243.722,69.624 C243.722,76.869 242.338,94.025 237.098,94.025 C231.594,94.025 231.349,82.129 231.349,75.256 L231.349,62.443 C231.349,53.028 233.458,44.783 237.297,44.783 Z M217.919,100.645 C217.919,102.39 218.926,104.018 220.546,104.018 C222.303,104.018 224.712,102.484 227.863,100.717 C229.176,99.984 230.243,100.134 231.009,101.04 C232.697,103.048 235.494,104.702 240.28,104.702 C248.954,104.702 258.087,92.648 258.087,71.199 C258.087,55.675 252.888,34.214 239.965,34.214 C236.37,34.214 233.362,37.35 231.713,40.813 L231.713,4.486 C231.713,0.989 229.927,0.268 226.7,2.065 L214.225,9.028 C213.368,9.506 212.833,10.099 213.064,11.096 C213.571,13.239 217.918,10.806 217.918,18.428 L217.918,100.645 L217.919,100.645 Z" id="path10"></path>
            <path d="M301.551,103.638 C303.155,103.638 304.879,103.461 304.879,102.143 C304.879,100.029 301.01,100.093 301.01,95.137 L301.01,53.329 C301.01,39.279 292.622,34.21 283.951,34.21 C271.841,34.21 266.916,41.752 265.479,46.44 C264.835,48.545 265.178,49.708 266.629,50.711 L274.217,55.963 C275.702,56.993 277.582,56.512 277.387,54.327 C276.819,47.815 277.826,40.743 282.361,40.743 C287.038,40.743 287.56,46.469 287.56,54.993 L287.56,58.012 C274.129,61.486 261.832,72.31 261.93,86.638 C261.997,96.7 267.923,104.426 277.142,104.426 C283.041,104.426 286.837,100.531 288.251,98.12 C288.691,101.936 289.647,103.636 292.173,103.636 L301.551,103.636 L301.551,103.638 Z M282.993,93.917 C278.125,94.404 276.08,88.604 276.08,83.656 C276.08,76.983 280.084,67.587 287.58,64.477 L287.58,85.408 C287.58,89.781 286.317,93.582 282.993,93.917 Z" id="path12"></path>
            <path d="M418.593,90.34 C411.614,90.34 408.712,79.512 407.671,74.023 L427.093,63.379 C429.375,62.131 430.395,60.462 430.296,55.589 C430.037,42.892 424.39,33.823 415.776,33.823 C403.259,33.823 394.965,50.551 394.965,69.492 C394.965,91.746 404.019,103.518 413.373,104.308 C423.918,105.199 429.803,95.562 429.803,85.836 C429.803,78.064 424.434,79.121 424.434,83.012 C424.435,86.479 422.706,90.34 418.593,90.34 M416.119,62.409 L406.638,67.613 C405.167,55.898 405.882,42.46 411.51,42.46 C414.671,42.46 418.165,47.528 418.278,56.905 C418.319,59.913 417.999,61.375 416.119,62.409" id="path14"></path>
            <path d="M93.832,70.041 C93.832,88.625 101.025,104.831 114.54,104.831 C126.887,104.831 135.332,89.168 135.332,70.041 C135.332,52.9 128.211,34.214 114.811,34.214 C100.893,34.214 93.832,53.942 93.832,70.041 M123.722,74.925 C124.632,87.148 121.285,90.968 118.428,91.242 C113.363,91.723 106.574,84.798 105.261,59.724 C104.614,47.501 107.81,42.594 111.438,42.722 C115.849,42.877 122.263,55.483 123.722,74.925" id="path16"></path>
            <path d="M3.71,95.506 L3.71,10.614 C3.71,5.734 0.206,6.208 0.206,3.967 C0.206,2.689 1.616,2.47 3.53,2.47 L18.998,2.47 C21.032,2.47 22.322,2.76 22.322,3.967 C22.322,6.087 18.818,5.817 18.818,10.614 L18.818,46.753 L37.963,13.843 C39.828,10.64 39.888,8.215 39.211,7.05 C38.384,5.617 37,5.158 37.113,3.929 C37.196,2.996 38.008,2.47 39.801,2.47 L54.957,2.47 C56.822,2.47 57.972,2.76 58.1,3.967 C58.273,5.576 56.536,5.899 54.115,8.046 C52.025,9.9 50.318,12.058 48.024,15.833 L35.899,35.801 L54.596,91.717 C56.867,98.507 59.454,100.264 61.221,100.264 C62.563,100.264 64.307,99.267 64.307,95.68 L64.307,51.584 C64.307,43.978 59.957,46.384 59.453,44.252 C59.227,43.297 59.716,42.684 60.615,42.184 L73.086,35.225 C75.289,33.996 78.011,33.368 78.011,37.308 L78.011,46.125 C81.312,39.196 87.445,32.909 94.471,34.436 C95.869,34.741 97.013,35.714 96.599,37.064 L92.501,50.498 C92.117,51.776 91.406,52.52 90.338,52.52 C88.091,52.52 88.432,49.009 85.011,48.873 C81.913,48.749 78.142,54.686 78.142,70.909 L78.142,95.679 C78.142,100.464 81.466,100.037 81.466,102.143 C81.466,103.481 79.913,103.638 78.142,103.638 L39.037,103.638 C36.48,103.638 35.796,103.093 35.796,102.154 C35.796,99.932 40.533,99.777 38.642,93.807 L25.626,52.746 L18.817,63.984 L18.817,95.506 C18.817,100.238 22.321,100.097 22.321,102.153 C22.321,103.421 21.031,103.637 18.997,103.637 L3.304,103.637 C1.394,103.637 0.206,103.329 0.206,102.153 C0.206,99.968 3.71,100.341 3.71,95.506" id="path18"></path>
            <path d="M157.297,58.506 C157.297,52.674 159.275,47.479 163.128,47.479 C167.411,47.479 168.336,52.675 168.336,58.506 L168.336,95.676 C168.336,100.529 165.012,99.968 165.012,102.143 C165.012,103.427 166.456,103.638 168.336,103.638 C169.878,103.638 180.397,103.638 182.134,103.638 C183.901,103.638 185.454,103.481 185.454,102.143 C185.454,100.038 182.134,100.464 182.134,95.676 L182.134,58.506 C182.134,52.674 184.051,47.479 187.962,47.479 C192.343,47.479 193.534,52.675 193.534,58.506 L193.534,95.676 C193.534,100.529 190.213,99.968 190.213,102.143 C190.213,103.427 191.654,103.638 193.534,103.638 L207.332,103.638 C209.103,103.638 210.655,103.481 210.655,102.143 C210.655,100.038 207.332,100.464 207.332,95.676 L207.332,49.862 C207.332,37.932 200.564,34.221 195.76,34.221 C189.402,34.221 184.533,39.556 181.811,44.181 C180.603,39.436 176.953,34.221 170.987,34.221 C164.32,34.221 159.572,39.661 157.207,44.181 L157.207,37.308 C157.207,33.785 155.011,33.706 152.289,35.225 L139.814,42.184 C138.648,42.834 138.483,43.549 138.656,44.252 C139.182,46.41 143.506,43.936 143.506,51.584 L143.506,95.676 C143.506,100.529 140.178,99.968 140.178,102.143 C140.178,103.427 141.622,103.638 143.506,103.638 C145.044,103.638 155.568,103.638 157.297,103.638 C159.071,103.638 160.62,103.481 160.62,102.143 C160.62,100.038 157.297,100.464 157.297,95.676 L157.297,58.506 Z" id="path20"></path>
            <path d="M328.106,33.82 C315.323,33.82 307.127,50.686 307.127,69.488 C307.127,90.724 315.854,103.582 326.031,104.308 C336.969,105.09 342.397,94.619 342.397,84.625 C342.397,77.102 337.024,78.199 337.024,81.598 C337.024,85.598 335.359,89.978 331.144,89.978 C321.342,89.978 318.21,70.401 318.21,57.313 C318.21,53.061 319.172,42.304 324.09,42.304 C329.513,42.304 329.817,52.346 329.741,56.9 C329.704,59.265 331.478,59.979 332.945,58.629 L340.126,52.012 C341.183,51.034 341.314,49.925 341.314,48.267 C341.315,41.745 334.78,33.82 328.106,33.82" id="path22"></path>
            <path d="M348.067,95.285 C348.067,100.135 344.744,99.578 344.744,101.752 C344.744,103.033 346.183,103.247 348.067,103.247 L361.862,103.247 C363.633,103.247 365.189,103.094 365.189,101.752 C365.189,99.647 361.862,100.071 361.862,95.285 L361.862,57.262 C361.862,52.916 363.746,46.859 367.701,46.859 C372.168,46.859 373.265,52.916 373.265,57.262 L373.265,95.285 C373.265,100.135 369.942,99.578 369.942,101.752 C369.942,103.033 371.382,103.247 373.265,103.247 L387.059,103.247 C388.83,103.247 390.387,103.094 390.387,101.752 C390.387,99.647 387.059,100.071 387.059,95.285 L387.059,53.495 C387.059,39.836 382.138,33.82 375.31,33.82 C367.963,33.82 363.276,40.001 361.862,43.877 L361.862,4.091 C361.862,0.609 360.091,-0.135 356.85,1.674 L344.375,8.633 C343.521,9.111 342.973,9.735 343.217,10.705 C343.755,12.859 348.067,10.434 348.067,18.033 L348.067,95.285 Z" id="path24"></path>
            <path d="M452.073,36.914 C452.073,33.383 449.867,33.319 447.152,34.831 L434.681,41.79 C433.331,42.542 433.399,43.357 433.519,43.858 C434.031,46.012 438.411,43.512 438.37,51.374 L438.37,95.285 C438.37,100.135 435.046,99.574 435.046,101.748 C435.046,103.033 436.486,103.247 438.37,103.247 L452.168,103.247 C453.939,103.247 455.491,103.094 455.491,101.748 C455.491,99.643 452.168,100.071 452.168,95.285 L452.168,70.519 C452.168,52.209 456.92,48.344 459.066,48.446 C462.364,48.6 461.968,52.131 464.387,52.131 C465.548,52.131 466.176,51.315 466.54,50.104 L470.64,36.678 C470.996,35.497 470.244,34.241 468.51,33.952 C462.209,32.877 456.239,36.922 452.072,45.731 L452.072,36.914 L452.073,36.914 Z" id="path26"></path>
        </g>
    </g>
</svg>